<svg width="27" height="24" viewBox="0 0 27 24" fill="none" xmlns="http://www.w3.org/2000/svg">
<path d="M3.19472 13.6666L3.47775 13.3771L2.67135 12.5888L2.40216 12.8641C1.87809 12.2709 1.45264 11.5958 1.14335 10.8644C0.760919 9.96015 0.563867 8.98831 0.563867 8.00649C0.563867 7.02467 0.760919 6.05284 1.14335 5.14856C1.52577 4.24431 2.08578 3.426 2.79021 2.74211L3.19472 13.6666ZM3.19472 13.6666L12.9605 23.2215L12.9792 23.2398C13.0524 23.3023 13.1457 23.337 13.2426 23.337C13.3485 23.337 13.4502 23.2956 13.5259 23.2215L23.6946 13.2725L23.6962 13.2709C24.4006 12.587 24.9607 11.7687 25.3431 10.8644C25.7255 9.96015 25.9226 8.98831 25.9226 8.00649C25.9226 7.02467 25.7255 6.05284 25.3431 5.14856C24.9607 4.24428 24.4006 3.42596 23.6962 2.74206C22.3615 1.44666 20.6036 0.677207 18.7464 0.57543C16.8891 0.473652 15.0577 1.04643 13.5894 2.18825L13.2432 2.45742L12.8971 2.18825C11.4288 1.04643 9.59732 0.473652 7.74009 0.57543C5.88288 0.677207 4.125 1.44666 2.79027 2.74206L3.19472 13.6666Z" stroke="white" stroke-width="1.12773"/>
</svg>
