<svg width="24" height="22" viewBox="0 0 24 22" fill="none" xmlns="http://www.w3.org/2000/svg">
<path d="M11.2083 21.0922L2.19137 12.2701C1.5187 11.6171 0.983943 10.8356 0.618767 9.97217C0.253591 9.1087 0.0654297 8.18071 0.0654297 7.24319C0.0654297 6.30567 0.253591 5.37768 0.618767 4.51421C0.983943 3.65073 1.5187 2.86932 2.19137 2.21628C3.46146 0.983608 5.13421 0.251406 6.90147 0.154558C8.66874 0.0577096 10.4115 0.60274 11.8087 1.68925C13.2058 0.60274 14.9486 0.0577096 16.7158 0.154558C18.4831 0.251406 20.1559 0.983608 21.4259 2.21628C22.0986 2.86932 22.6334 3.65073 22.9986 4.51421C23.3637 5.37768 23.5519 6.30567 23.5519 7.24319C23.5519 8.18071 23.3637 9.1087 22.9986 9.97217C22.6334 10.8356 22.0986 11.6171 21.4259 12.2701L12.409 21.0922C12.2484 21.2493 12.0327 21.3373 11.8081 21.3373C11.5834 21.3373 11.3677 21.2493 11.2071 21.0922H11.2083Z" fill="#D4D4D4"/>
</svg>
