<svg width="32" height="32" viewBox="0 0 32 32" fill="none" xmlns="http://www.w3.org/2000/svg">
<path d="M19.623 2.12988C17.8276 2.12986 16.3802 2.12983 15.242 2.28287C14.0602 2.44176 13.0651 2.78168 12.2748 3.57197C11.5856 4.26118 11.2373 5.10814 11.0545 6.10335C10.8769 7.07043 10.8429 8.25391 10.835 9.67392C10.832 10.2177 11.2704 10.6611 11.8142 10.6641C12.358 10.6671 12.8014 10.2287 12.8044 9.68488C12.8124 8.24916 12.8497 7.23151 12.9915 6.45917C13.1282 5.71497 13.3478 5.28421 13.6673 4.96457C14.0308 4.6012 14.541 4.36428 15.5043 4.23475C16.4961 4.10141 17.8105 4.09932 19.6951 4.09932H21.0081C22.8927 4.09932 24.2071 4.10141 25.1989 4.23475C26.1624 4.36428 26.6725 4.6012 27.0359 4.96457C27.3993 5.32795 27.6362 5.83814 27.7658 6.80154C27.899 7.79329 27.9011 9.10772 27.9011 10.9923V21.496C27.9011 23.3806 27.899 24.695 27.7658 25.6868C27.6362 26.6503 27.3993 27.1604 27.0359 27.5238C26.6725 27.8872 26.1624 28.1241 25.1989 28.2537C24.2071 28.3869 22.8927 28.389 21.0081 28.389H19.6951C17.8105 28.389 16.4961 28.3869 15.5043 28.2537C14.541 28.1241 14.0308 27.8872 13.6673 27.5238C13.3478 27.2041 13.1282 26.7734 12.9915 26.0293C12.8497 25.2568 12.8124 24.2392 12.8044 22.8035C12.8014 22.2596 12.358 21.8212 11.8142 21.8243C11.2704 21.8273 10.832 22.2707 10.835 22.8145C10.8429 24.2344 10.8769 25.4179 11.0545 26.3849C11.2373 27.3802 11.5856 28.2272 12.2748 28.9165C13.0651 29.7067 14.0602 30.0466 15.242 30.2055C16.3802 30.3585 17.8276 30.3585 19.623 30.3585H21.0802C22.8758 30.3585 24.323 30.3585 25.4614 30.2055C26.6432 30.0466 27.6381 29.7067 28.4285 28.9165C29.2188 28.1261 29.5587 27.1311 29.7176 25.9493C29.8707 24.811 29.8706 23.3637 29.8706 21.5681V10.9203C29.8706 9.12472 29.8707 7.67742 29.7176 6.53912C29.5587 5.35732 29.2188 4.36227 28.4285 3.57197C27.6381 2.78168 26.6432 2.44176 25.4614 2.28287C24.323 2.12983 22.8758 2.12986 21.0802 2.12988H19.623Z" fill="#D4D4D4"/>
<path d="M19.6957 15.2602C20.2396 15.2602 20.6805 15.7011 20.6805 16.2449C20.6805 16.7887 20.2396 17.2296 19.6957 17.2296H5.28924L7.86349 19.4362C8.27642 19.79 8.32423 20.4117 7.9703 20.8246C7.61638 21.2376 6.99472 21.2853 6.58181 20.9314L1.98645 16.9925C1.76819 16.8055 1.64258 16.5323 1.64258 16.2449C1.64258 15.9575 1.76819 15.6843 1.98645 15.4973L6.58181 11.5584C6.99472 11.2044 7.61638 11.2523 7.9703 11.6652C8.32423 12.0781 8.27642 12.6998 7.86349 13.0537L5.28924 15.2602H19.6957Z" fill="#D4D4D4"/>
</svg>
