<svg width="25" height="25" viewBox="0 0 25 25" fill="none" xmlns="http://www.w3.org/2000/svg">
<path fill-rule="evenodd" clip-rule="evenodd" d="M7.30524 16.2137C6.4404 15.3306 5.85381 14.2131 5.61824 12.9997C5.38072 11.7829 5.50269 10.5233 5.96924 9.37469C6.43181 8.23253 7.22153 7.25251 8.23924 6.55769C10.3041 5.14744 13.0224 5.14744 15.0872 6.55769C16.105 7.25251 16.8947 8.23253 17.3572 9.37469C17.8238 10.5233 17.9458 11.7829 17.7082 12.9997C17.4727 14.2131 16.8861 15.3306 16.0212 16.2137C14.8759 17.389 13.3044 18.0519 11.6632 18.0519C10.0221 18.0519 8.45059 17.389 7.30524 16.2137Z" stroke="#D4D4D4" stroke-width="1.5" stroke-linecap="round" stroke-linejoin="round"/>
<path d="M11.6701 7.70319C11.2582 7.74683 10.9597 8.11613 11.0033 8.52804C11.047 8.93995 11.4163 9.23848 11.8282 9.19484L11.6701 7.70319ZM13.5215 10.1924C13.683 10.5739 14.1231 10.7522 14.5046 10.5907C14.886 10.4292 15.0643 9.98907 14.9028 9.60763L13.5215 10.1924ZM16.642 15.5872C16.3489 15.2946 15.874 15.295 15.5814 15.5882C15.2887 15.8813 15.2892 16.3562 15.5823 16.6488L16.642 15.5872ZM18.9703 20.0308C19.2635 20.3235 19.7383 20.3231 20.031 20.0299C20.3236 19.7367 20.3232 19.2619 20.03 18.9692L18.9703 20.0308ZM11.8282 9.19484C12.5507 9.11828 13.2383 9.52333 13.5215 10.1924L14.9028 9.60763C14.3621 8.33032 13.0495 7.55703 11.6701 7.70319L11.8282 9.19484ZM15.5823 16.6488L18.9703 20.0308L20.03 18.9692L16.642 15.5872L15.5823 16.6488Z" fill="#D4D4D4"/>
</svg>
