<svg width="27" height="25" viewBox="0 0 27 25" fill="none" xmlns="http://www.w3.org/2000/svg">
<path d="M23.6963 3.03508C22.3615 1.73965 20.6036 0.970177 18.7464 0.868399C16.8891 0.766621 15.0577 1.3394 13.5894 2.48122L13.2432 2.75039L12.8971 2.48122C11.4288 1.3394 9.59732 0.766621 7.74009 0.868399C5.88288 0.970176 4.125 1.73963 2.79027 3.03503L23.6963 3.03508ZM23.6963 3.03508C24.4007 3.71897 24.9607 4.53728 25.3431 5.44153C25.7255 6.34581 25.9226 7.31764 25.9226 8.29946C25.9226 9.28128 25.7255 10.2531 25.3431 11.1574C24.9607 12.0617 24.4006 12.88 23.6962 13.5639L23.6946 13.5654L13.5259 23.5145C13.4502 23.5885 13.3485 23.63 13.2426 23.63C13.1457 23.63 13.0524 23.5953 12.9792 23.5327L12.9605 23.5145L2.79184 13.5654L2.79027 13.5639C2.08581 12.88 1.52578 12.0617 1.14335 11.1574C0.760919 10.2531 0.563867 9.28128 0.563867 8.29946C0.563867 7.31764 0.760919 6.34581 1.14335 5.44153C1.52577 4.53728 2.08578 3.71897 2.79021 3.03508L23.6963 3.03508Z" fill="#703DDC" stroke="white" stroke-width="1.12773"/>
</svg>
