<svg width="23" height="24" viewBox="0 0 23 24" fill="none" xmlns="http://www.w3.org/2000/svg">
<path d="M8.11959 23.1542H2.08353C1.34273 23.1542 0.742188 22.5537 0.742188 21.8129V9.67875C0.742188 9.29195 0.90916 8.92399 1.20025 8.66928L10.616 0.430516C11.1103 -0.00197068 11.845 -0.0129584 12.352 0.404556L22.3858 8.66768C22.6952 8.92248 22.8744 9.30229 22.8744 9.7031V21.8129C22.8744 22.5537 22.2739 23.1542 21.5331 23.1542H15.497C14.7562 23.1542 14.1556 22.5537 14.1556 21.8129V16.4475C14.1556 15.7067 13.5551 15.1061 12.8143 15.1061H10.8023C10.0615 15.1061 9.46094 15.7067 9.46094 16.4475V21.8129C9.46094 22.5537 8.8604 23.1542 8.11959 23.1542Z" fill="#D4D4D4"/>
</svg>
