<svg width="47" height="47" viewBox="0 0 47 47" fill="none" xmlns="http://www.w3.org/2000/svg">
<path d="M42.9382 31.2289C42.9382 36.749 42.9382 39.5091 41.2232 41.2241C39.5083 42.939 36.7482 42.939 31.228 42.939H15.6145C10.0942 42.939 7.33413 42.939 5.61921 41.2241C3.9043 39.5091 3.9043 36.749 3.9043 31.2289V23.4221C3.9043 17.9018 3.9043 15.1417 5.61921 13.4268C7.33413 11.7119 10.0942 11.7119 15.6145 11.7119H31.228C36.7482 11.7119 39.5083 11.7119 41.2232 13.4268C42.9382 15.1417 42.9382 17.9018 42.9382 23.4221V31.2289Z" stroke="#D4D4D4" stroke-width="2.92754"/>
<path d="M17.5664 3.9043L23.4215 10.7352L29.2766 3.9043" stroke="#D4D4D4" stroke-width="2.92754" stroke-linecap="round"/>
<path d="M31.2275 11.7119V42.939" stroke="#D4D4D4" stroke-width="2.92754" stroke-linecap="round"/>
<path d="M39.0352 31.2281C39.0352 30.1501 38.1615 29.2764 37.0835 29.2764C36.0056 29.2764 35.1318 30.1501 35.1318 31.2281C35.1318 32.306 36.0056 33.1798 37.0835 33.1798C38.1615 33.1798 39.0352 32.306 39.0352 31.2281Z" fill="#D4D4D4"/>
<path d="M39.0352 23.4214C39.0352 22.3435 38.1615 21.4697 37.0835 21.4697C36.0056 21.4697 35.1318 22.3435 35.1318 23.4214C35.1318 24.4993 36.0056 25.3731 37.0835 25.3731C38.1615 25.3731 39.0352 24.4993 39.0352 23.4214Z" fill="#D4D4D4"/>
</svg>
